<?xml version="1.0" encoding="UTF-8" standalone="no" ?>
<!DOCTYPE svg PUBLIC "-//W3C//DTD SVG 1.1//EN" "http://www.w3.org/Graphics/SVG/1.1/DTD/svg11.dtd">


<svg version="1.1" xmlns="http://www.w3.org/2000/svg" xmlns:xlink="http://www.w3.org/1999/xlink" width="256" height="256" viewBox="0,0,256,256">

	<g transform="translate(25.6,25.6) scale(0.8,0.8)">

		<!--
		rounded cyan


		<g fill="#52ddfa" fill-rule="nonzero" stroke="none" stroke-width="1" stroke-linecap="butt" stroke-linejoin="miter" stroke-miterlimit="10" stroke-dasharray="" stroke-dashoffset="0" font-family="none" font-weight="none" font-size="none" text-anchor="none" style="mix-blend-mode: normal">
			<path d="M48,288c-44.18278,0 -80,-35.81722 -80,-80v-160c0,-44.18278 35.81722,-80 80,-80h160c44.18278,0 80,35.81722 80,80v160c0,44.18278 -35.81722,80 -80,80z" id="shape"></path>
		</g>
		-->

		<g fill="none" fill-rule="nonzero" stroke="none" stroke-width="1" stroke-linecap="butt" stroke-linejoin="miter" stroke-miterlimit="10" stroke-dasharray="" stroke-dashoffset="0" font-family="none" font-weight="none" font-size="none" text-anchor="none" style="mix-blend-mode: normal">
			<g transform="scale(4,4)">

				<path d="M58,27.6l4.36,11.7c0.42202,1.12218 0.6388,2.31109 0.64,3.51v10.19c0,2.20914 -1.79086,4 -4,4h-54c-2.20914,0 -4,-1.79086 -4,-4v-10.19c0.0012,-1.19891 0.21798,-2.38782 0.64,-3.51l4.36,-11.7c0.58712,-1.57148 2.09245,-2.60964 3.77,-2.6h44.46c1.67755,-0.00964 3.18288,1.02852 3.77,2.6z" fill="#ced8ed"></path>
				<path d="M1,41h62v12c0,2.20914 -1.79086,4 -4,4h-54c-2.20914,0 -4,-1.79086 -4,-4z" fill="#c2cde7"></path>
				<rect x="1" y="49" width="62" height="8" rx="4" ry="4" fill="#b5c4e0"></rect>
				<path d="M59,29h-54l4,-4h46z" fill="#dae2ef"></path>
				<path d="M55,47c-1.10457,0 -2,0.89543 -2,2c0,1.10457 0.89543,2 2,2c1.10457,0 2,-0.89543 2,-2c0,-1.10457 -0.89543,-2 -2,-2zM47,47c-1.10457,0 -2,0.89543 -2,2c0,1.10457 0.89543,2 2,2c1.10457,0 2,-0.89543 2,-2c0,-1.10457 -0.89543,-2 -2,-2z" fill="#97e0bb"></path>
				<path d="M13.44,1h-0.08c-0.59289,-0.00814 -1.15883,0.24723 -1.54504,0.69716c-0.3862,0.44993 -0.55285,1.04803 -0.45496,1.63284l3.64,21.67h6l-5.62,-22.49c-0.22447,-0.88827 -1.0238,-1.51044 -1.94,-1.51zM50.64,1h-0.08c-0.9162,-0.00044 -1.71553,0.62173 -1.94,1.51l-5.62,22.49h6l3.61,-21.67c0.09697,-0.57961 -0.06589,-1.17254 -0.44532,-1.6213c-0.37943,-0.44876 -0.93702,-0.70794 -1.52468,-0.7087z" fill="#8b8e98"></path>
				<path d="M63.3,39l-4.39,-11.75c-0.72977,-1.95317 -2.59495,-3.24844 -4.68,-3.25h-4l3.37,-20.51c0.14518,-0.87645 -0.10555,-1.77217 -0.68466,-2.44586c-0.57911,-0.6737 -1.42703,-1.05608 -2.31534,-1.04414h-0.08c-1.37575,-0.00008 -2.57523,0.9356 -2.91,2.27l-5.39,21.73h-20.44l-5.43,-21.73c-0.33477,-1.3344 -1.53425,-2.27008 -2.91,-2.27h-0.08c-0.88831,-0.01194 -1.73623,0.37044 -2.31534,1.04414c-0.57911,0.6737 -0.82985,1.56942 -0.68466,2.44586l3.46,20.51h-4c-2.08251,0 -3.94696,1.29077 -4.68,3.24l-4.44,11.76c-0.45688,1.21859 -0.69389,2.50859 -0.7,3.81v10.19c0,2.76142 2.23858,5 5,5h54c2.76142,0 5,-2.23858 5,-5v-10.19c-0.00611,-1.30141 -0.24312,-2.59141 -0.7,-3.81zM49.59,2.76c0.11282,-0.45718 0.5293,-0.77371 1,-0.76h0.08c0.29748,-0.00434 0.58145,0.12401 0.77475,0.35017c0.1933,0.22616 0.27586,0.52665 0.22525,0.81983l-3.52,20.83h-3.87zM12.37,3.17c-0.05061,-0.29318 0.03195,-0.59367 0.22525,-0.81983c0.1933,-0.22616 0.47727,-0.35451 0.77475,-0.35017h0.08c0.4707,-0.01371 0.88718,0.30282 1,0.76l5.27,21.24h-3.87zM7,27.95c0.43291,-1.15899 1.53291,-1.93336 2.77,-1.95h44.46c1.23709,0.01664 2.33709,0.79101 2.77,1.95v0l4.39,11.71c0,0.11 0.07,0.23 0.11,0.35h-59.04c0,-0.12 0.07,-0.23 0.11,-0.35zM62,53c0,1.65685 -1.34315,3 -3,3h-54c-1.65685,0 -3,-1.34315 -3,-3v-10.19c0,-0.27333 0,-0.54333 0,-0.81h60c0,0.26667 0,0.53667 0,0.81z" fill="#8d6c9f"></path>
				<path d="M7,47c-0.55228,0 -1,0.44772 -1,1v2c0,0.55228 0.44772,1 1,1c0.55228,0 1,-0.44772 1,-1v-2c0,-0.55228 -0.44772,-1 -1,-1zM12,47c-0.55228,0 -1,0.44772 -1,1v2c0,0.55228 0.44772,1 1,1c0.55228,0 1,-0.44772 1,-1v-2c0,-0.55228 -0.44772,-1 -1,-1zM17,47c-0.55228,0 -1,0.44772 -1,1v2c0,0.55228 0.44772,1 1,1c0.55228,0 1,-0.44772 1,-1v-2c0,-0.55228 -0.44772,-1 -1,-1zM22,47c-0.55228,0 -1,0.44772 -1,1v2c0,0.55228 0.44772,1 1,1c0.55228,0 1,-0.44772 1,-1v-2c0,-0.55228 -0.44772,-1 -1,-1zM27,47c-0.55228,0 -1,0.44772 -1,1v2c0,0.55228 0.44772,1 1,1c0.55228,0 1,-0.44772 1,-1v-2c0,-0.55228 -0.44772,-1 -1,-1zM55,46c-1.65685,0 -3,1.34315 -3,3c0,1.65685 1.34315,3 3,3c1.65685,0 3,-1.34315 3,-3c0,-1.65685 -1.34315,-3 -3,-3zM55,50c-0.55228,0 -1,-0.44772 -1,-1c0,-0.55228 0.44772,-1 1,-1c0.55228,0 1,0.44772 1,1c0,0.55228 -0.44772,1 -1,1zM47,46c-1.65685,0 -3,1.34315 -3,3c0,1.65685 1.34315,3 3,3c1.65685,0 3,-1.34315 3,-3c0,-1.65685 -1.34315,-3 -3,-3zM47,50c-0.55228,0 -1,-0.44772 -1,-1c0,-0.55228 0.44772,-1 1,-1c0.55228,0 1,0.44772 1,1c0,0.55228 -0.44772,1 -1,1zM10,30h36c0.55228,0 1,-0.44772 1,-1c0,-0.55228 -0.44772,-1 -1,-1h-36c-0.55228,0 -1,0.44772 -1,1c0,0.55228 0.44772,1 1,1zM50,30h4c0.55228,0 1,-0.44772 1,-1c0,-0.55228 -0.44772,-1 -1,-1h-4c-0.55228,0 -1,0.44772 -1,1c0,0.55228 0.44772,1 1,1z" fill="#8d6c9f">
				</path>
			</g>
		</g>
	</g>
</svg>